<mxfile host="65bd71144e">
    <diagram id="HIP3nbAZw_EuaXWnEj3U" name="Page-1">
        <mxGraphModel dx="1086" dy="743" grid="1" gridSize="10" guides="1" tooltips="1" connect="1" arrows="1" fold="1" page="1" pageScale="1" pageWidth="850" pageHeight="1100" math="0" shadow="0">
            <root>
                <mxCell id="0"/>
                <mxCell id="1" parent="0"/>
                <mxCell id="7" value="http://ics2o.mths.ca" style="swimlane;whiteSpace=wrap;html=1;" parent="1" vertex="1">
                    <mxGeometry x="30" y="40" width="760" height="480" as="geometry"/>
                </mxCell>
                <mxCell id="8" value="Unit Converter" style="rounded=0;whiteSpace=wrap;html=1;fillColor=#f0a30a;fontColor=#000000;strokeColor=#BD7000;" vertex="1" parent="7">
                    <mxGeometry y="20" width="760" height="50" as="geometry"/>
                </mxCell>
                <mxCell id="9" value="Please Enter The Following&amp;nbsp;" style="text;html=1;align=center;verticalAlign=middle;resizable=0;points=[];autosize=1;strokeColor=none;fillColor=none;" vertex="1" parent="7">
                    <mxGeometry y="80" width="180" height="30" as="geometry"/>
                </mxCell>
                <mxCell id="11" value="" style="shape=partialRectangle;whiteSpace=wrap;html=1;top=0;left=0;fillColor=none;" vertex="1" parent="7">
                    <mxGeometry x="80" y="160" width="120" height="20" as="geometry"/>
                </mxCell>
                <mxCell id="12" value="Fahrenheit:" style="text;html=1;align=center;verticalAlign=middle;resizable=0;points=[];autosize=1;strokeColor=none;fillColor=none;" vertex="1" parent="7">
                    <mxGeometry x="-5" y="160" width="90" height="30" as="geometry"/>
                </mxCell>
                <mxCell id="13" value="Click Me&amp;nbsp;" style="labelPosition=center;verticalLabelPosition=middle;align=center;html=1;shape=mxgraph.basic.shaded_button;dx=10;fillColor=#a20025;strokeColor=#6F0000;whiteSpace=wrap;fontColor=#ffffff;" vertex="1" parent="7">
                    <mxGeometry x="10" y="210" width="100" height="60" as="geometry"/>
                </mxCell>
                <mxCell id="16" value="In Celsius it is :&amp;nbsp;" style="text;html=1;align=center;verticalAlign=middle;resizable=0;points=[];autosize=1;strokeColor=none;fillColor=none;" vertex="1" parent="7">
                    <mxGeometry x="10" y="290" width="110" height="30" as="geometry"/>
                </mxCell>
                <mxCell id="17" value="" style="shape=image;verticalLabelPosition=bottom;labelBackgroundColor=default;verticalAlign=top;aspect=fixed;imageAspect=0;image=data:image/png,iVBORw0KGgoAAAANSUhEUgAAATYAAACjCAMAAAA3vsLfAAABblBMVEX///8AAAD6AAEAgOP///7//f+pqanq6ur5+fnZ2dktLS38//////3zAAD09PTW1dXtxsftHR7BwcGdnZ1ycnKWlpb8AAAAddgAgOEAnjpbW1vl9PgAmzOzs7Pp6ekAmTUAmj30//2IiIiEhITtAAAAgOflAACk2LkAnjCamppISEjMzMx7e3s9PT0AkTWZ0rAAmEsAjSZEs29fuIHL69oAn0ns/vIvqF8AokO/6NGXzLEAmEHd9OeLzacAmyUcHBwRERFPT08AeNBNqndywZjA69C828qJ1KZLr3Rku4us4L4jqVcpol7b8Oqt2cRywpRqx5Pf/Oiu7spBpGNbu3ud3LWm2bKLx6vL7M+45sbY7d0sqmWU16uBwZnp9ewAiTXz2drubWztXFvnSUnjNzjhJSjog4JTnNs3j94Abtm83vAfGiHytredx+YXgtbfb2jvqKbdVVfQ5/SjyuXnkpBprN1Bl+RjqebvqK/VEA+3362PAAAR9ElEQVR4nO1di1/aShYeNVF0Rmx9R6MkrRhaKyCER0pSa6stFIW6tQ91YXtvX7bb3kdvu3fvf7/nTEAReQS0vxXvfL9WICQnM1++c+bMTDIQIiAgICAgICAgICAgICAgICAgIPDjIcmEUYm6H6gsy7it8a608v/4M5Upg7+E4SGUSPXHwaaqLUmqOZIxuYF5OLUMh6BNiZel7nRohTHcKOEXDN7DEZWTwo6yVL97c3jesY0Zxs9OZTsJL6zRLrLM9N2yRI/PKAFrsowfGcV/hNZXUuaHVU4g67buvpeBwjO8wTXQC7ZP0o/rhNbPloLpcFo0DQWWzX3dLSzl17rRxWiCDnZtiPKjR9ajAq2YsTMPobiN1UZJIeyc2mJGN/FAvMwMNAJ1On1k0ihF7IpliUXCRmW7ETVIA0TWTMmJ5rckKNOjwiMUHm6uqSHw/Rh2gE12pGTYxFjbd2mTqeU4li57UBGUmJ6XNEIKakhV13Z195OtxJpdCJnJBfU0bdZaVtJzESyLJB/kCnVHPEmA6bBVtXdXNSpCKoUcchZ6Ks/M8KviNjHuqQF1LYnXoBDfqaVNste2ituUvtBCqha29XTW/SKZVUOKGvfmfIW4fW61FZS4eWDKjOjAnIy06RQdEqqB1wU/UPA+eCPJ++pL/BYLB3tLRN7V5V01ht5KyVagyEuNdnhwsjOJSNnMIW1ohdMm8be6jUbBuXX0YTiAhyUTDJiBrWJeMrSnpmliuCLFkIlV5OXA4tprVjFFTS1hlM2HJokHknxzPJ09KBu5aol5zMByYFUorRZLZlgR4qgWnhf35KFZ70J9hVAJ/spPDgPhQ5PYWqyYybwgNPvQWYuAN4UTDiPF7X/kww+TZF95Gg9vW7K8uxcOZ23ZjBbtVDqfN6AQZj6dSJlk61lYy+5ioUhRKWKM14l1GM5sJjlt8FZzwGyBxKNJ2Y4WSTmurWUhQjESUQtEd6LbJjFcVUNtNxPpfFZnTmItUeQuqDsZ2CGnOK5pR90Hx6W2lrCBE11OFqPhaISSSPQfz8LPbDuahXAdzREzFtbiSVKIPoluP06kU9u6Xsqs5S2JpHLFtXo38UKbupksJ8l23HDS28SGYsbTYZvE0tqhYanxrb2AQfbSmXhKKZH9tBKLp7epnkobhnZID0Lx8kM4AE9rxuCNaWr5SFGJYrtCnyl4UZlkq4dbSOFdxaDbeet5iURCz8lewJbt0B46rBUvY4TKqSanWyJGqJhMlmWg8m4qnc2xYiAbyaqumHn7k1JQgyAUIBib6IIWgzgBMTkeiEcO1Qhx0loslo5LecWWX6hOMpHfjwTixFAy+fjzVDqWw/NupQI2SUBFHzXLHVrQpqTDaoZiA5bKgNpSSTi3RWJKhNA9bZfYgRyJa8+JqcSB4jilKS1pBp4SsqeVdyCaJAN7qH7gTd0k5Glon/DjIXrnlQNeSyewT/R0CtWmR/MmbIuA7rJQZBuOz4UMkAvmEtnALnPzD0PRwuo2dSW7Q/QoKDOZyeuVpIPQRHrHLb0ZKuKLAYVD7MK1lE0lS17CZdLTUfIYzhRX7EIIwmoqQY1QDJzaCZiERlOUPAlFgDaLN/cdpiQFJeZEIsTcS2TgNOCkhPt+TIOrnU9HMxkoRDzwiuwAPRDbZJbVygUlEY1qgYMDqLYeyLqN2SsoKRxmSzKyAjXMgyQokBBPZ6IZNQoaM6DEgZhNIqDgONIGtTUzoZRBkfcYbIGmGBIxQ9uLOAZPhIqqKdlaFvg8DCd5gSEFoq5ppE2t0Jbl6dwjZFFPRMlL1ZD1fAK+j+uJFNlMR6MZLaNjm6ZLJfUVKWtQhUzgJUkkdEYbJETtaEORkHIi/9xMZegOnt9Rt8ihmpRAfvuWZe2A2g5IGTSOTQLJasmC8tS0XlnyAVS7DI2IJKHaIKJLsYApk8chA4NvHAIQpl457blpWSaqTSZWTotyte0FdmRUK0k6CVQnhS27lZzNqLbYjGyC5+5qMeA1mnBzNDAtgS9AVsdktqWW0FvNQAIiHwTYUI6ALrd5HNXzUQKsPIFg6ij/3LJMC+iFZh9os4C2FFTN8iNtZ9J0T2pD2kwgJZmP0hO1BcoQKRRwOb0MryacB9UGRGSVsqllwbHKhNOmHbqNK5iA2K2VaDIVxvgMDUjC0G3HjAQcbuWu8kIHt02Fda62kJGMh+LkgJJ/upkJCKuSaRtAuFSlbV8H2Vh0H1RNmSs32CFh6XYJGg9wM4n4INjGbX2/lNSiNo2A7FHZFNRGSum8ZoI2UIVl2VAxW3qpGDrdTthEKlOkrfPIRsg+xC6ZlKPpvUQiQw8CkLeV7lmgtrJPNjUlluLKAE+Bb4xQSaIxDaNfPpaISgf39iDbUhQHM8hyNBQo2NFAPg0KoBL0n4qKqilrVjKvpWJKjjj3jORaLAYKi6jPyRNVCUBlSSyxl4jaLlkR5mbaxr3jvM4IKFFqqJl8QLMq8YdBvpMD0+qayfMTbCQsOLmiZsnjANAE5uBcLm2WGkoBY8/UVDbxkDy5B7Sx/XvKv3SwGUuBBU1LdtPTOihZvFNVyhWsiF5+bGDCvUMMB2iTbKdYNMqk4JTlcsSQd+D6MsPRoRu0mXNeyWWnAPn65qYpYU/LLG6WZTtSBIPQfmJwt0o5x6KSfnezGLGJWTogVnHTSOI76HIUneTdAjlwco4NhFCyG4hLbhfTdMxqn4lFihE0BAaqXQBWMf0S4sEh5m2QfMlJo1gsJGX6qLR5F14O4FzSXeBIjziP8OsXxWLkAE4GRaXUyIHNV6V4qaATI0Jpw85kbwCqc5hIdniMreZ+TGl6BxCxIO9k3uMMpdLLsHVRgxk9CvA8tuvrJA8Ax04m2d+bNYyvFBKoTtQG3QjaZLTmb4YOUyjBmYCAgICAgICAgICAgICAgEBvwT8xN7LeN7J6Y+xi7I1PjvT13R+ZHL8Yc5cTvpt9x1hdOL+9ifVjc+sT5zd3STF+UkvEnP985oZXT5nru4DrcBkx6Kps8sbgwo0RfHt/6Dzmxri5janxlfGp2/z9ykWV9DJhgfvSYuXTGBJ339e9uWEu2Kq5xTn8eEEB8zJhEetVG4Awzs11bc53v84tb+FFOcdluKTYOONFN88Tj26cOXgKtkx1a+6yYgUqNVi3Dfx0pEtzqN07ddsmYds5W5lLh8kGFA13H44m4ND6BsVfFwWuAqBKZ1NSaABvdmdu46zY+KVZ7c7cZcVwA3XwcNRdPX0NdToObXNX5i4tFhrWCOrZh69j4xV4TeQWG4axocrWxaq54e4LfDkw2DD6j7n1XDnJ9D2GdBTv2WTD50p66MTcYoNjewktaVs4qadHfbSkbfjEXK/3G1rSRm7MVeA1jWtJG5momuv5NK41bR2jNW1XB4K2riBo6woV2qjEOPizPoK2tnBp43dEMun4xkhBWxu4tFV0hsDH9QRt7eDSRgEV2vhWQVsbuLS9/unnN2/fAd6+ffPzeypoaweXtmuj/SdYFmprC04bPUXbdUFbW5xV27SgrT2qtI0K2jrBCW1A3PR0nZOOT0wMIia8DpC1pm1s0LU20esDIA3UVkNbzXibR7G0pG2x43GoS4uWtNWMt3kcV2xO2+IVHG+rNgmjdU46NVmB1xuHWjvpYNVcz89jHdOGYY1rTjQJHnCKNuANmLsuCdra4TRtIt31iHraQG7XRZ+0LWpoc910WdDmAXVqGx1dGhVO2h6nW1LXSQVtbXE2Aem/Lgva2qGGtmpP4TpjgrY2qOklVPtX15lQWzuc0DYq8jbvOKZttNHAUcf429F2ZgQEa78wxXFr6mLG21Zu3XLN9fwjRc1p87t3B17UwNHp8bZef1Ch5XhbDW0XPEx5VWjrP+nL18S2wVsTLrwOK7Z20vGKtVs9/xRWSyftHC5tOLevu6CMsL9Vk3AO2uY/HP3ywMUvRx/mJUFbG7i0ff0YDAYHBgbgb3B2Zp4J2tqgStvswCxgYABeZ+aFk7YDp036OoNaQwBzgrb2cGn7NBOcHahC0NYerpMK2jqEoO08TcLMgKCtE7ixbf64SRC0eUJz2nr94bTTaD1w1DEqvYSZgSuutskGtLmD4l2NieEz3z72taZJgHSXd67qn8fvZfhxeZN/A239p2iT+AooXVQUFxNwmwSXMuwpgNrwYfkGz4L3Kvy4ZgfKqm7giPkmu6ooX2NmirD5j8Fj2rBPSnFNi76NH1GF/wMWcWmjDT+h+rWlkztnpq8zXXZvpJzszB6yNjJM5BMnBdaCMztMJsO4ls3VWGbAhys43SQy9b1fnq5x0tG3nwkliyN9HS7PgMvyzPkIo19+Oe6Sopf+8oUy6tvo/DJcTqAj3gCpfX5X2yCgty796telIdRiB8OwuCjPnEzY1w8fa9IPHD2a+TDPGF/d5gq0Cwv88sv0t+Xp07ThjOm715QnE97XiMKJglXK2KcHNR0rdxAkGHzwlUlk9Spkb5gUjBCm/7bcX8caNg7TfwFv41yOHoGBbUhC1k6RNhDEMbfgg0+ME9v9klOXBFN8/oh+Xu4/Qxt/SOGNn/I1ojzqY5x7tMQbg2Cd2jDEPZhnXN89PkPq5wkGfb3c3xjToz9R6vMexm9jguHTj+q0dtI0HOlMGun5LGSBC4n+fkZqx+Ft9DPlkvQU3TBfWSHsy8xsQ9qAt5kvjO/V2w9yrKKO6LWmYgPi3jLZ77UxvckD5am+aB1vwQfzhKz3eGdhyJ0Z/72+Ea3FEsht0mMUX8fkAsTWhLQg8gZyu9HtEMElAa7i6ZdfL003Z61/9HfKfdlDPd11uSikuY1jG5fbEWMrPZ6D3EQV0c8ttAb4S+ZJg4d6Arvr2Iw29VHkbeYrQ1X28oNDc9jlpu9biQ28FHK3+54eK+NXgf2B06PNeQt+4eft5eC2ihkUfdOStVFsS2976hHNYfeVfQnOBpvSNhsc+MAX/OzlDj1vEdi7lrT1j37jHVcPy1+tou+x781J42r7Dx/G7HHaIIG63pq2/veE3PHUv1pFTUp/Nm0POGtIGzRFt3987X4YuNqkNrRNf6PeaYNI74G2qd7uJ6xjbJPetnHS3yhGLQ+xbYMP6n5vRdtsMPgnT9x6edBtA9mgP023bEqXrlFcudhD73sS2ZCwSWhO2wDmu3e6Xpn2UoDXk/5Wffq2CW1DvDPvoRc5gX0r6dPHgVYJyMdPzA2CvYspd7GZpZqZl7N443bRPcwz890Yziq3oO2Bzvw9frfzGM/+5XetaMP846a31cV9fCRN+h5snoIEg9/dEbcfXrcfCT6wf+ylDTib7l9+zUObp/HdOXR6duqWmVrKMLLNfOLzCb3ckPJ0fR1UcmYe4YS10feUjnvteuPQwKKk/6fJKOUANBYfGB3qbFLnEmKM14B+XmostunR6b/8urTqNTv182kH9rVxUwoSxFkYbIju/9hq/XBs4G9mMPrraEO5jU4vX3PnYDwO/t/iTW7TETcc3KXDfb3/exPD7nyf740741IvtiVIdf0d3IFQ2Zd9d+/ROhXiZmdnP0J7wGf8enmQkuMOl5Lsf1OvN2wklr4xmU+ze04XBiuT1d/xmYSaRASnSYMz32mjnzvpRfjWuV9R30918Q1YXP6sMz7d14FP3easMPplJjhbM+4G4guChzLOa89Pk5LKMmPAm/7f60v9td2spd9fU3fcv5PRCn77EkbCr0ecuJOwdvSJyYyvznUlfhFmwb1Ni+m+b38t47PL0/B/dPnNNUol91a1jqrJ1xmbIIzRP45mZoI4rwDuOXP0By5Le6uv5yf7jjFYvYuNsmvffn63vLz89tfPrwml7o1V9zsUB5fvhh9XP/765c+jBzMPjr7/MU+BtCG8b6bnF22rwOfqbQTjNNUplWUZ1y0mZAibi77VjueY3HXtbvmIxAiTdDDJ14/28bsCr4rWECv8Rw9HBjlDFKtLfCvuz0dOdpErLLo/ejg15i4WjfakYe6ffbev1D3Pfh7DQFo3F8aGF4dXBifvuxu6TBVuuEev31lYcc2NuBt6Pc09g2H3Vx1P40bXaenQZANzk708p9wMw3dOV3Jk8FyJwuLU/dP2pq4iaRzjExVvun1z8AJC99jgHTfKrd4Z7OVhSQEBAQEBAQEBAQEBAQEBAQGBq4P/AfJgYKTNUvinAAAAAElFTkSuQmCC;" vertex="1" parent="7">
                    <mxGeometry x="430" y="110" width="310" height="163" as="geometry"/>
                </mxCell>
            </root>
        </mxGraphModel>
    </diagram>
</mxfile>